<svg width="512" height="454" viewBox="0 0 512 454" fill="none" xmlns="http://www.w3.org/2000/svg">
<path fill-rule="evenodd" clip-rule="evenodd" d="M258.19 352.951V379.43C250.079 386.48 238.982 390.879 227.803 390.879C206.181 390.879 188.625 374.422 188.625 354.153C188.625 333.883 206.181 317.426 227.803 317.426C239.09 317.426 250.294 321.911 258.424 329.081L246.524 343.345C242.645 338.446 236.046 335.239 227.936 335.239C218.232 335.239 210.354 343.714 210.354 354.153C210.354 364.591 218.232 373.067 227.936 373.067C232.47 373.067 236.586 372.013 240.02 370.192V352.951H258.19ZM39.1784 317.426C60.8007 317.426 78.3568 333.883 78.3568 354.153C78.3568 374.422 60.8007 390.879 39.1784 390.879C17.5546 390.879 0 374.422 0 354.153C0 333.883 17.5546 317.426 39.1784 317.426ZM352.216 389.649L369.226 389.273V318.085H348.75V357.601L318.884 318.085H300.941V389.273H321.419V350.669L352.216 389.649ZM180.398 335.678H159.921V389.273H180.398V335.678ZM289.162 335.678H268.684V389.273H289.162V335.678ZM461.042 389.273V318.085H481.52V372.821H512V389.273H461.042ZM123.595 318.099C123.873 318.091 124.153 318.085 124.434 318.085C138.776 318.085 150.421 329.623 150.421 343.832C150.421 353.327 145.221 361.628 137.491 366.092L151.59 389.273H127.903L118.781 369.578H107.123V389.273H86.6452V318.085H123.595V318.099ZM425.82 318.085L455.393 389.273H434.915L430.374 378.342H399.484L394.943 389.273H374.466L404.039 318.085H425.82ZM39.1784 335.239C48.8082 335.239 56.6277 343.714 56.6277 354.153C56.6277 364.591 48.8082 373.067 39.1784 373.067C29.5472 373.067 21.729 364.591 21.729 354.153C21.729 343.714 29.5472 335.239 39.1784 335.239ZM414.929 341.164L405.627 363.555H424.231L414.929 341.164ZM118.965 332.873H107.123V354.792H118.965C124.954 354.792 129.816 349.88 129.816 343.832C129.816 337.783 124.954 332.873 118.965 332.873ZM180.398 318.085H159.921V330.896H180.398V318.085ZM289.162 318.085H268.684V330.896H289.162V318.085Z" fill="#4E516B"/>
<path d="M196.981 452.81L196.932 418.594H189.649L178.357 441.275L167.213 418.594H159.539V452.81H165.6V427.148L176.842 448.9H179.677L190.919 426.855L190.968 452.81H196.981Z" fill="#F57023"/>
<path d="M219.171 414.44H224.45L229.338 408.574H222.153L219.171 414.44ZM222.202 453.299C232.809 453.299 240.629 445.869 240.629 435.702C240.629 425.535 232.809 418.106 222.202 418.106C211.595 418.106 203.774 425.584 203.774 435.702C203.774 445.82 211.595 453.299 222.202 453.299ZM222.202 447.727C215.31 447.727 210.177 442.692 210.177 435.702C210.177 428.712 215.31 423.678 222.202 423.678C229.094 423.678 234.226 428.712 234.226 435.702C234.226 442.692 229.094 447.727 222.202 447.727Z" fill="#F57023"/>
<path d="M271.227 418.594L259.74 444.989L248.351 418.594H241.459L256.417 452.81H262.673L277.581 418.594H271.227Z" fill="#F57023"/>
<path d="M287.555 447.482V438.048H304.076V432.818H287.555V423.922H306.178V418.594H281.201V452.81H306.862V447.482H287.555Z" fill="#F57023"/>
<path d="M320.305 418.594H313.95V452.81H320.305V418.594Z" fill="#F57023"/>
<path d="M340.15 453.299C349.535 453.299 353.983 448.607 353.983 443.132C353.983 430.57 333.698 435.311 333.698 428.028C333.698 425.438 335.848 423.385 341.127 423.385C344.109 423.385 347.482 424.265 350.561 426.073L352.565 421.136C349.584 419.181 345.282 418.106 341.176 418.106C331.791 418.106 327.392 422.798 327.392 428.322C327.392 441.03 347.726 436.191 347.726 443.572C347.726 446.114 345.478 448.02 340.15 448.02C335.946 448.02 331.596 446.456 328.859 444.256L326.659 449.193C329.494 451.637 334.822 453.299 340.15 453.299Z" fill="#F57023"/>
<path fill-rule="evenodd" clip-rule="evenodd" d="M256.068 33.3846V240.201L166.515 188.497V85.0887L256.068 33.3846ZM225.103 83.4671L194.403 101.191V172.394L225.103 190.119V83.4671Z" fill="#4E516B"/>
<path fill-rule="evenodd" clip-rule="evenodd" d="M256.069 24.0917L158.468 80.4432V193.144L256.069 249.495V273.587L137.603 205.189V68.3974L256.069 0V24.0917Z" fill="#4E516B"/>
<path fill-rule="evenodd" clip-rule="evenodd" d="M256.068 0L374.534 68.3974V205.189L256.068 273.587V249.495L353.671 193.144V80.4432L256.068 24.0917V0Z" fill="#F57023"/>
<path fill-rule="evenodd" clip-rule="evenodd" d="M287.034 109.401V222.322L256.068 240.201V33.3846L287.034 51.2619L306.645 84.1248L317.733 69.2828V68.9862L317.887 69.0764L317.954 68.9862L318.706 69.5481L345.623 85.0887V188.497L317.733 204.6V123.18L306.224 138.585L287.034 109.401Z" fill="#F57023"/>
</svg>
